<svg version="1.1" id="Layer_1" xmlns="http://www.w3.org/2000/svg" x="0" y="0" viewBox="0 0 92.7 72.7" xml:space="preserve"><path d="M92.4 17 77.2 1.9c-.4-.4-1.1-.4-1.5 0L62.1 15.5c-.3.3-.9.6-1.5 0L46.4 1.3C45.1.1 43.5 0 43.1 0L1.6.1C.2.1-.5 1.8.5 2.8L54 56.2c.7.7.2 1.8-.7 1.8H28.4c-.9 0-1.4 1.1-.7 1.8L40 72.3c.4.4 1.1.4 1.5 0l14.2-14.2 22.7-23.2c.4-.4.4-1.1 0-1.5l-13-13.2c-.9-.9-.4-1.4.7-1.4h25.6c.9 0 1.4-1.1.7-1.8zM50.5 71.2c0 .8-.7 1.5-1.5 1.5s-1.5-.7-1.5-1.5.7-1.5 1.5-1.5c.9.1 1.5.7 1.5 1.5zm-.1 0c0-.7-.6-1.3-1.3-1.3-.7 0-1.3.6-1.3 1.3 0 .7.6 1.3 1.3 1.3.7 0 1.3-.6 1.3-1.3zm-1.2.1.5.8h-.2l-.5-.8h-.3v.8h-.2v-1.7h.6c.3 0 .5.2.5.5.1.2-.1.4-.4.4zm-.5-.1h.4c.2 0 .3-.1.3-.3 0-.2-.1-.3-.3-.3h-.4v.6z" fill="#191919"/></svg>