<?xml version="1.0" standalone="no"?>
<!DOCTYPE svg PUBLIC "-//W3C//DTD SVG 20010904//EN"
 "http://www.w3.org/TR/2001/REC-SVG-20010904/DTD/svg10.dtd">
<svg version="1.0" xmlns="http://www.w3.org/2000/svg"
 width="339.000000pt" height="339.000000pt" viewBox="0 0 339.000000 339.000000"
 preserveAspectRatio="xMidYMid meet">
<metadata>
Created by potrace 1.14, written by Peter Selinger 2001-2017
</metadata>
<g transform="translate(0.000000,339.000000) scale(0.100000,-0.100000)"
fill="#000000" stroke="none">
<path d="M70 2988 c-21 -8 -33 -25 -37 -53 -3 -14 250 -273 973 -996 902 -903
975 -978 965 -998 -9 -15 -21 -21 -49 -21 -20 -1 -228 -1 -462 -1 -282 0 -429
-4 -437 -11 -7 -6 -13 -18 -13 -27 0 -9 108 -124 239 -255 205 -204 241 -236
257 -228 29 15 1184 1183 1317 1331 30 33 35 45 28 60 -6 10 -118 127 -251
259 -132 133 -240 246 -240 251 0 5 4 12 10 16 5 3 223 5 484 5 409 0 476 2
489 15 9 8 14 22 13 31 -3 21 -566 574 -585 574 -8 0 -130 -115 -271 -255
-140 -140 -261 -255 -269 -255 -7 0 -129 117 -272 259 -142 142 -273 270 -291
283 l-33 23 -773 0 c-425 0 -781 -3 -792 -7z"/>
</g>
</svg>
